# xmcd
#
# Track frame offsets:
#	150
#	17045
#	35992
#	53447
#	68865
#	83917
#	106797
#	123787
#	141360
#	157167
#	176527
#	192797
#	204610
#	221607
#	239762
#	256397
#	273497
#	290810
#
# Disc length: 4155 seconds
#
# Revision: 0
# Processed by: cddbd v1.5.2PL0 Copyright (c) Steve Scherf et al.
# Submitted via: VUPlayer 2.49
#
DISCID=15103912
DTITLE=Kenny Rogers - After Dark =1999=
DYEAR=1999
DGENRE=Country
TTITLE0=Ain't No Sunshine =1973=
TTITLE1=The Kind of Fool Love Makes =1996=
TTITLE2=Let it Be Me =1957=
TTITLE3=You Don't Know Me =1955=
TTITLE4=How Sweet it is =To Be Loved By You==1964=
TTITLE5=I Will Remember You =1995=
TTITLE6=Buy Me A Rose =1999=
TTITLE7=Three Times A Lady =1978=
TTITLE8=Share Your Love with Me =1981=
TTITLE9=I Can't Make You Love Me =1991=
TTITLE10=I Don't Need You =1981=
TTITLE11=This Masquerade =1972=
TTITLE12=Since I Fell for You =1948==ReNewed=
TTITLE13=Don't Fall in Love with A Dreamer =1980=
TTITLE14=Loving Arms =1972=
TTITLE15=Love Don't Live Here Anymore =1999=
TTITLE16=You Looked So Beautiful =1999=
TTITLE17=Small Dark Cloud =1999=
EXTD=
EXTT0=
EXTT1=
EXTT2=
EXTT3=
EXTT4=
EXTT5=
EXTT6=
EXTT7=
EXTT8=
EXTT9=
EXTT10=
EXTT11=
EXTT12=
EXTT13=
EXTT14=
EXTT15=
EXTT16=
EXTT17=
PLAYORDER=
